<svg xmlns="http://www.w3.org/2000/svg" version="1.1" xmlns:xlink="http://www.w3.org/1999/xlink" xmlns:svgjs="http://svgjs.dev/svgjs" width="1500" height="526" viewBox="0 0 1500 526"><g transform="matrix(1,0,0,1,-0.9090909090909918,-0.1172405656459432)"><svg viewBox="0 0 396 139" data-background-color="#243837" preserveAspectRatio="xMidYMid meet" height="526" width="1500" xmlns="http://www.w3.org/2000/svg" xmlns:xlink="http://www.w3.org/1999/xlink"><g id="tight-bounds" transform="matrix(1,0,0,1,0.2400000000000091,0.030981822480583787)"><svg viewBox="0 0 395.52 138.93775221978518" height="138.93775221978518" width="395.52"><g><svg viewBox="0 0 654.0491320014567 229.75353014154518" height="138.93775221978518" width="395.52"><g transform="matrix(1,0,0,1,258.5291320014568,58.37784862647343)"><svg viewBox="0 0 395.5199999999999 112.99783288859832" height="112.99783288859832" width="395.5199999999999"><g id="textblocktransform"><svg viewBox="0 0 395.5199999999999 112.99783288859832" height="112.99783288859832" width="395.5199999999999" id="textblock"><g><svg viewBox="0 0 395.5199999999999 60.94563161844408" height="60.94563161844408" width="395.5199999999999"><g transform="matrix(1,0,0,1,0,0)"><svg width="395.5199999999999" viewBox="0.49 -35.23 289.65 45.12" height="60.94563161844408" data-palette-color="#fe7833"><g class="wordmark-text-0" data-fill-palette-color="primary" id="text-0"><path d="M32.93 0L28.27 0 23.66-11.94 9.77-11.94 5.15 0 0.49 0 14.4-35.11 19.02-35.11 32.93 0ZM16.7-29.98L11.21-15.7 22.22-15.7 16.7-29.98ZM52.37-25.34L52.37-35.16 56.56-35.16 56.56-9.59Q56.56-5.3 56.69-3.96L56.69-3.96Q56.81-2.29 57.25-0.39L57.25-0.39 53.2 0.51Q52.78-0.85 52.59-2.25L52.59-2.25Q52.34-3.96 52.32-4.88L52.32-4.88 51.95-4.88Q50.68-2.25 49.14-1L49.14-1Q47.29 0.59 44.55 0.59L44.55 0.59Q42.16 0.59 40.43-0.45 38.69-1.49 37.73-3.34 36.77-5.2 36.31-7.42 35.86-9.64 35.86-12.33L35.86-12.33Q35.86-15.36 36.48-17.77 37.11-20.19 38.4-22.06 39.69-23.93 41.87-24.94 44.04-25.95 46.97-25.95L46.97-25.95Q49.27-25.95 52.37-25.34L52.37-25.34ZM52.37-10.28L52.37-10.28 52.37-21.63Q49.61-22.36 47.29-22.36L47.29-22.36Q45.31-22.36 43.88-21.64 42.45-20.92 41.65-19.62 40.84-18.31 40.48-16.7 40.11-15.09 40.11-13.09L40.11-13.09Q40.11-11.72 40.17-10.68 40.23-9.64 40.39-8.44 40.55-7.23 40.89-6.37 41.23-5.52 41.75-4.79 42.26-4.05 43.08-3.67 43.89-3.3 44.97-3.3L44.97-3.3Q47.56-3.3 49.46-5.37L49.46-5.37Q50.83-6.88 52.37-10.28ZM67.4-35.23L67.4-35.23Q68.53-35.23 69.36-34.45L69.36-34.45Q70.16-33.59 70.16-32.45L70.16-32.45Q70.16-31.27 69.36-30.47L69.36-30.47Q68.53-29.64 67.4-29.64L67.4-29.64Q66.23-29.64 65.4-30.47L65.4-30.47Q64.57-31.25 64.57-32.45L64.57-32.45Q64.57-33.62 65.4-34.45L65.4-34.45Q66.23-35.23 67.4-35.23ZM65.25 0L65.25-25.39 69.45-25.39 69.45 0 65.25 0ZM80.44-25.39L80.44-31.2 84.64-31.2 84.64-25.39 93.18-25.39 93.18-21.85 84.64-21.85 84.64-7.28Q84.64-5.81 84.72-5.04 84.81-4.27 85.15-3.83L85.15-3.83Q85.78-2.95 87.71-2.95L87.71-2.95Q88.79-2.95 89.79-3.17L89.79-3.17Q90.81-3.39 91.67-3.66L91.67-3.66Q92.35-2.17 92.91-0.39L92.91-0.39Q90.03 0.59 87.1 0.59L87.1 0.59Q84.98 0.59 83.7 0.11 82.41-0.37 81.68-1.44L81.68-1.44Q80.93-2.56 80.68-4.13 80.44-5.69 80.44-8.45L80.44-8.45 80.44-21.85 76.77-21.85 76.77-25.39 80.44-25.39ZM115.57-25.39L119.77-25.39 119.77 0.56Q119.77 2.98 118.97 4.74 118.18 6.49 116.77 7.64 115.37 8.79 113.44 9.34 111.51 9.89 109.24 9.89L109.24 9.89Q107.19 9.89 105.12 9.53 103.04 9.18 101.16 8.54L101.16 8.54Q101.48 7.69 101.82 6.88 102.16 6.08 102.5 5.27L102.5 5.27Q103.09 5.47 103.91 5.69 104.73 5.91 105.64 6.09 106.56 6.27 107.52 6.38 108.49 6.49 109.39 6.49L109.39 6.49Q110.81 6.49 111.95 6.12 113.1 5.74 113.91 4.98 114.71 4.22 115.14 3.11 115.57 2 115.57 0.56L115.57 0.56 115.57-4.96 115.1-4.96Q114.47-3.81 113.64-2.8 112.81-1.78 111.81-1.03 110.81-0.27 109.65 0.16 108.49 0.59 107.19 0.59L107.19 0.59Q105.41 0.59 104.09 0.18 102.77-0.22 101.83-1.01 100.89-1.81 100.3-2.99 99.7-4.17 99.38-5.74L99.38-5.74Q99.11-7.13 99.04-8.72 98.96-10.3 98.96-11.99L98.96-11.99 98.96-25.39 103.16-25.39 103.16-10.82Q103.16-9.23 103.31-7.85 103.46-6.47 103.96-5.46 104.46-4.44 105.43-3.87 106.41-3.3 108.1-3.3L108.1-3.3Q109.34-3.3 110.44-3.89 111.54-4.49 112.47-5.42 113.39-6.35 114.16-7.47 114.93-8.59 115.57-9.67L115.57-9.67 115.57-25.39ZM129.65-20.9L129.65-20.9 128.58-24.32Q132.68-25.95 137.17-25.95L137.17-25.95Q141.1-25.95 143.18-24.63L143.18-24.63Q145.54-23.12 145.54-19.48L145.54-19.48 145.54-9.5Q145.54-7.5 145.59-5.4L145.59-5.4Q145.62-4.15 145.84-2.81L145.84-2.81Q146.03-1.54 146.35-0.39L146.35-0.39 142.35 0.49Q141.78-1.15 141.64-3.17L141.64-3.17 141.15-3.22Q138.12 0.59 133.43 0.59L133.43 0.59Q130.02 0.59 127.94-1.31 125.87-3.2 125.87-6.64L125.87-6.64Q125.87-9.2 127-10.84 128.14-12.48 130.21-13.6L130.21-13.6Q133.48-15.38 139.37-15.38L139.37-15.38Q140.15-15.38 141.47-15.33L141.47-15.33 141.47-19.04Q141.47-20.8 140.39-21.58 139.32-22.36 137.02-22.36L137.02-22.36Q133.68-22.36 129.65-20.9ZM141.47-7.13L141.47-7.13 141.47-12.26Q140.81-12.3 139.54-12.3L139.54-12.3Q137.39-12.3 135.58-11.94L135.58-11.94Q132.9-11.4 131.42-10.24 129.94-9.08 129.94-6.91L129.94-6.91Q129.94-3 134.19-3L134.19-3Q136.39-3 138.29-4.17L138.29-4.17Q139.86-5.15 141.47-7.13Z" fill="#fe7833" data-fill-palette-color="primary"></path><path d="M165.02-35.11L176.01-35.11Q178.33-35.11 180.39-34.57 182.46-34.03 184.04-32.86L184.04-32.86Q185.65-31.67 186.57-29.83 187.49-28 187.49-25.51L187.49-25.51Q187.49-23.02 186.57-21.19 185.65-19.36 184.04-18.16L184.04-18.16Q182.8-17.24 181.27-16.72 179.75-16.21 178.01-16.02L178.01-16.02 177.99-15.97Q178.7-15.5 179.55-14.66 180.41-13.82 181.33-12.67L181.33-12.67Q182.26-11.52 183.24-10.19 184.21-8.86 185.21-7.4L185.21-7.4 190.29 0 184.92 0 179.4-8.54Q177.91-10.89 176.83-12.33 175.74-13.77 174.77-14.6L174.77-14.6Q173.81-15.43 172.81-15.72 171.81-16.02 170.49-16.02L170.49-16.02 169.57-16.02 169.57 0 165.02 0 165.02-35.11ZM169.57-19.58L176.01-19.58Q177.55-19.58 178.82-19.92 180.09-20.26 181-20.98 181.92-21.7 182.43-22.83 182.94-23.95 182.94-25.51L182.94-25.51Q182.94-27.08 182.43-28.2 181.92-29.32 181-30.04 180.09-30.76 178.82-31.1 177.55-31.45 176.01-31.45L176.01-31.45 169.57-31.45 169.57-19.58ZM205.18-25.95L205.18-25.95Q206.38-25.95 207.67-25.77 208.97-25.59 210.21-25.07L210.21-25.07Q211.46-24.54 212.57-23.62 213.68-22.71 214.53-21.24L214.53-21.24Q215.39-19.75 215.88-17.66 216.36-15.58 216.36-12.7L216.36-12.7Q216.36-9.81 215.88-7.73 215.39-5.64 214.53-4.17L214.53-4.17Q213.68-2.69 212.57-1.76 211.46-0.83 210.21-0.32L210.21-0.32Q208.97 0.22 207.67 0.4 206.38 0.59 205.18 0.59L205.18 0.59Q204.01 0.59 202.73 0.4 201.45 0.22 200.2-0.32L200.2-0.32Q198.96-0.83 197.86-1.76 196.76-2.69 195.91-4.17L195.91-4.17Q195.05-5.64 194.56-7.73 194.07-9.81 194.07-12.7L194.07-12.7Q194.07-15.58 194.56-17.66 195.05-19.75 195.91-21.24L195.91-21.24Q196.76-22.71 197.86-23.62 198.96-24.54 200.2-25.07L200.2-25.07Q201.45-25.59 202.72-25.77 203.99-25.95 205.18-25.95ZM205.18-22.51L205.18-22.51Q203.79-22.51 202.56-22.07 201.33-21.63 200.4-20.53L200.4-20.53Q199.45-19.41 198.88-17.53 198.32-15.65 198.32-12.7L198.32-12.7Q198.32-9.77 198.88-7.87 199.45-5.98 200.4-4.88L200.4-4.88Q201.33-3.76 202.56-3.33 203.79-2.91 205.18-2.91L205.18-2.91Q206.6-2.91 207.86-3.33 209.11-3.76 210.07-4.88L210.07-4.88Q211.02-5.98 211.57-7.87 212.12-9.77 212.12-12.7L212.12-12.7Q212.12-15.65 211.57-17.53 211.02-19.41 210.07-20.53L210.07-20.53Q209.11-21.63 207.86-22.07 206.6-22.51 205.18-22.51ZM225.15-25.39L225.15-31.2 229.35-31.2 229.35-25.39 237.9-25.39 237.9-21.85 229.35-21.85 229.35-7.28Q229.35-5.81 229.44-5.04 229.52-4.27 229.86-3.83L229.86-3.83Q230.5-2.95 232.43-2.95L232.43-2.95Q233.5-2.95 234.5-3.17L234.5-3.17Q235.53-3.39 236.38-3.66L236.38-3.66Q237.07-2.17 237.63-0.39L237.63-0.39Q234.75 0.59 231.82 0.59L231.82 0.59Q229.69 0.59 228.41 0.11 227.13-0.37 226.4-1.44L226.4-1.44Q225.64-2.56 225.4-4.13 225.15-5.69 225.15-8.45L225.15-8.45 225.15-21.85 221.49-21.85 221.49-25.39 225.15-25.39ZM245.41-20.9L245.41-20.9 244.34-24.32Q248.44-25.95 252.93-25.95L252.93-25.95Q256.86-25.95 258.94-24.63L258.94-24.63Q261.31-23.12 261.31-19.48L261.31-19.48 261.31-9.5Q261.31-7.5 261.35-5.4L261.35-5.4Q261.38-4.15 261.6-2.81L261.6-2.81Q261.79-1.54 262.11-0.39L262.11-0.39 258.11 0.49Q257.55-1.15 257.4-3.17L257.4-3.17 256.91-3.22Q253.88 0.59 249.2 0.59L249.2 0.59Q245.78 0.59 243.7-1.31 241.63-3.2 241.63-6.64L241.63-6.64Q241.63-9.2 242.76-10.84 243.9-12.48 245.97-13.6L245.97-13.6Q249.25-15.38 255.13-15.38L255.13-15.38Q255.91-15.38 257.23-15.33L257.23-15.33 257.23-19.04Q257.23-20.8 256.15-21.58 255.08-22.36 252.79-22.36L252.79-22.36Q249.44-22.36 245.41-20.9ZM257.23-7.13L257.23-7.13 257.23-12.26Q256.57-12.3 255.3-12.3L255.3-12.3Q253.15-12.3 251.34-11.94L251.34-11.94Q248.66-11.4 247.18-10.24 245.71-9.08 245.71-6.91L245.71-6.91Q245.71-3 249.95-3L249.95-3Q252.15-3 254.05-4.17L254.05-4.17Q255.62-5.15 257.23-7.13ZM268.53-24.95L268.53-24.95 272.58-25.85Q273.05-24.39 273.24-23.02L273.24-23.02Q273.34-22.36 273.49-20.41L273.49-20.41 274-20.41Q275.34-22.88 277.32-24.34L277.32-24.34Q279.49-25.95 281.91-25.95L281.91-25.95Q285.55-25.95 287.45-24.19L287.45-24.19Q289.09-22.71 289.72-19.63L289.72-19.63Q290.14-17.53 290.14-13.38L290.14-13.38 290.14 0 285.94 0 285.94-14.55Q285.94-18.19 285.23-19.75L285.23-19.75Q284.18-22.07 281.01-22.07L281.01-22.07Q278.76-22.07 276.61-19.92L276.61-19.92Q275.17-18.48 273.53-15.7L273.53-15.7 273.53 0 269.34 0 269.34-15.63Q269.34-18.92 269.16-21.31L269.16-21.31Q269.07-22.8 268.53-24.95Z" fill="#fe7833" data-fill-palette-color="primary"></path></g></svg></g></svg></g><g transform="matrix(1,0,0,1,0,75.33343254839988)"><svg viewBox="0 0 222.6641011755278 37.66440034019844" height="37.66440034019844" width="222.6641011755278"><g transform="matrix(1,0,0,1,0,0)"><svg width="222.6641011755278" viewBox="2.15 -35.05 212.21333333332998 35.9" height="37.66440034019844" data-palette-color="#fe7833"><path d="M3 0.15L3 0.15Q2.55 0.15 2.35-0.2 2.15-0.55 2.15-0.95L2.15-0.95Q2.2-1.8 2.55-1.9 2.9-2 3.4-2L3.4-2Q5-2 5.65-2.58 6.3-3.15 6.48-4.03 6.65-4.9 6.65-5.85L6.65-5.85 6.65-25.7Q6.65-26.65 6.48-27.53 6.3-28.4 5.65-28.98 5-29.55 3.4-29.55L3.4-29.55Q2.9-29.55 2.55-29.65 2.2-29.75 2.15-30.6L2.15-30.6Q2.15-31 2.35-31.35 2.55-31.7 3-31.7L3-31.7Q4.6-31.65 6.03-31.6 7.45-31.55 8.95-31.55L8.95-31.55 23.4-31.55Q23.95-31.55 24.33-31.3 24.7-31.05 24.7-30.35L24.7-30.35 24.85-23.35Q24.85-22.85 24.38-22.6 23.9-22.35 23.5-22.35L23.5-22.35Q22.95-22.35 22.48-22.58 22-22.8 21.9-23.25L21.9-23.25Q21.6-25.5 21.13-26.88 20.65-28.25 19.73-28.88 18.8-29.5 17.05-29.55L17.05-29.55 11.6-29.55 11.6-16.55 20.55-16.55Q20.95-16.5 21.15-16.15 21.35-15.8 21.35-15.4L21.35-15.4Q21.35-15.05 21.15-14.73 20.95-14.4 20.55-14.4L20.55-14.4 11.6-14.4 11.6-5.85Q11.65-4.9 11.8-4.03 11.95-3.15 12.63-2.58 13.3-2 14.85-2L14.85-2Q15.35-2 15.7-1.9 16.05-1.8 16.1-0.95L16.1-0.95Q16.1-0.55 15.9-0.2 15.7 0.15 15.2 0.15L15.2 0.15Q12 0 9 0L9 0Q7.5 0 6.05 0.03 4.6 0.05 3 0.15ZM37.8 0.6L37.8 0.6Q34.4 0.6 32.4-1.45 30.4-3.5 30.4-6.85L30.4-6.85 30.4-16.1Q30.4-17 30.32-17.78 30.25-18.55 29.75-19.03 29.25-19.5 27.85-19.5L27.85-19.5Q27.4-19.5 27.02-19.63 26.65-19.75 26.65-20.5L26.65-20.5Q26.65-21.25 27.45-21.4L27.45-21.4Q29.75-21.75 30.97-22.1 32.2-22.45 32.85-22.7 33.5-22.95 34-23L34-23Q34.4-23.05 34.67-22.85 34.95-22.65 34.95-22.05L34.95-22.05 34.95-6.9Q34.95-5.25 35.67-4.2 36.4-3.15 37.5-2.65 38.6-2.15 39.75-2.15L39.75-2.15Q41.5-2.15 42.8-2.78 44.1-3.4 44.9-4.23 45.7-5.05 45.95-5.6L45.95-5.6 45.95-16.1Q45.95-17 45.87-17.78 45.8-18.55 45.3-19.03 44.8-19.5 43.4-19.5L43.4-19.5Q42.95-19.5 42.57-19.63 42.2-19.75 42.2-20.5L42.2-20.5Q42.2-21.25 43-21.4L43-21.4Q45.3-21.75 46.52-22.1 47.75-22.45 48.4-22.7 49.05-22.95 49.55-23L49.55-23Q49.95-23.05 50.22-22.85 50.5-22.65 50.5-22.05L50.5-22.05 50.5-4.75Q50.5-1.8 54.45-1.8L54.45-1.8Q55-1.8 55.15-1.5 55.3-1.2 55.3-0.85L55.3-0.85Q55.3-0.15 54.45 0L54.45 0 46.4 0.55Q46.05 0.55 46 0.25 45.95-0.05 45.95-0.45L45.95-0.45 45.95-3.25 45.85-3.25Q44.9-2.35 43.82-1.45 42.75-0.55 41.32 0.03 39.9 0.6 37.8 0.6ZM58.05 0.15L58.05 0.15Q57.7 0.15 57.47-0.18 57.24-0.5 57.24-0.85L57.24-0.85Q57.34-1.6 57.64-1.68 57.95-1.75 58.45-1.75L58.45-1.75Q59.84-1.75 60.34-2.23 60.84-2.7 60.92-3.5 60.99-4.3 60.99-5.15L60.99-5.15 60.99-16.6Q60.99-17.5 60.92-18.28 60.84-19.05 60.34-19.53 59.84-20 58.45-20L58.45-20Q57.99-20 57.62-20.13 57.24-20.25 57.24-21L57.24-21Q57.24-21.75 58.05-21.9L58.05-21.9Q60.34-22.25 61.57-22.6 62.8-22.95 63.42-23.2 64.05-23.45 64.55-23.5L64.55-23.5Q64.94-23.55 65.22-23.35 65.5-23.15 65.5-22.55L65.5-22.55 65.5-19.45 65.64-19.45Q67.34-21.1 69.14-22.18 70.94-23.25 72.44-23.25L72.44-23.25Q74.19-23.25 75.12-21.95 76.05-20.65 76.05-19.2L76.05-19.2Q76.05-17.95 75.25-16.78 74.44-15.6 72.84-15.6L72.84-15.6Q72.05-15.6 71.57-15.93 71.09-16.25 71.05-16.4L71.05-16.4Q71.05-16.5 71.52-17 72-17.5 72-18.25L72-18.25Q72-19.15 71.52-19.7 71.05-20.25 70.25-20.25L70.25-20.25Q69.39-20.25 68.07-19.4 66.75-18.55 65.55-17.35L65.55-17.35 65.55-5.15Q65.55-4.3 65.62-3.5 65.69-2.7 66.22-2.23 66.75-1.75 68.14-1.75L68.14-1.75Q68.59-1.75 68.92-1.68 69.25-1.6 69.3-0.85L69.3-0.85Q69.3-0.5 69.09-0.18 68.89 0.15 68.5 0.15L68.5 0.15Q67.05 0.05 65.82 0.03 64.59 0 63.24 0L63.24 0Q61.89 0 60.7 0.03 59.49 0.05 58.05 0.15ZM79.29 0.15L79.29 0.15Q78.94 0.15 78.72-0.18 78.49-0.5 78.49-0.85L78.49-0.85Q78.59-1.6 78.89-1.68 79.19-1.75 79.69-1.75L79.69-1.75Q81.09-1.75 81.59-2.23 82.09-2.7 82.17-3.5 82.24-4.3 82.24-5.15L82.24-5.15 82.24-16.6Q82.24-17.5 82.17-18.28 82.09-19.05 81.59-19.53 81.09-20 79.69-20L79.69-20Q79.24-20 78.87-20.13 78.49-20.25 78.49-21L78.49-21Q78.49-21.75 79.29-21.9L79.29-21.9Q81.59-22.25 82.82-22.6 84.04-22.95 84.67-23.2 85.29-23.45 85.79-23.5L85.79-23.5Q86.19-23.55 86.47-23.35 86.74-23.15 86.74-22.55L86.74-22.55 86.74-19.4 86.89-19.4Q87.89-20.35 88.94-21.23 89.99-22.1 91.42-22.68 92.84-23.25 94.94-23.25L94.94-23.25Q98.34-23.25 100.34-21.2 102.34-19.15 102.34-15.8L102.34-15.8 102.34-5.15Q102.34-4.3 102.42-3.5 102.49-2.7 103.02-2.23 103.54-1.75 104.94-1.75L104.94-1.75Q105.39-1.75 105.72-1.68 106.04-1.6 106.09-0.85L106.09-0.85Q106.09-0.5 105.89-0.18 105.69 0.15 105.29 0.15L105.29 0.15Q103.84 0.05 102.62 0.03 101.39 0 100.04 0L100.04 0Q98.69 0 97.49 0.03 96.29 0.05 94.84 0.15L94.84 0.15Q94.49 0.15 94.27-0.18 94.04-0.5 94.04-0.85L94.04-0.85Q94.09-1.6 94.42-1.68 94.74-1.75 95.19-1.75L95.19-1.75Q96.59-1.75 97.12-2.23 97.64-2.7 97.72-3.5 97.79-4.3 97.79-5.15L97.79-5.15 97.79-15.75Q97.79-17.4 97.07-18.45 96.34-19.5 95.24-20 94.14-20.5 92.99-20.5L92.99-20.5Q91.29-20.5 89.99-19.88 88.69-19.25 87.89-18.45 87.09-17.65 86.79-17.05L86.79-17.05 86.79-5.15Q86.79-4.3 86.87-3.5 86.94-2.7 87.47-2.23 87.99-1.75 89.39-1.75L89.39-1.75Q89.84-1.75 90.17-1.68 90.49-1.6 90.54-0.85L90.54-0.85Q90.54-0.5 90.34-0.18 90.14 0.15 89.74 0.15L89.74 0.15Q88.29 0.05 87.07 0.03 85.84 0 84.49 0L84.49 0Q83.14 0 81.94 0.03 80.74 0.05 79.29 0.15ZM109.24 0.15L109.24 0.15Q108.89 0.15 108.67-0.18 108.44-0.5 108.44-0.85L108.44-0.85Q108.54-1.6 108.84-1.68 109.14-1.75 109.64-1.75L109.64-1.75Q111.04-1.75 111.54-2.23 112.04-2.7 112.12-3.5 112.19-4.3 112.19-5.15L112.19-5.15 112.19-16.6Q112.19-17.5 112.12-18.28 112.04-19.05 111.54-19.53 111.04-20 109.64-20L109.64-20Q109.19-20 108.82-20.13 108.44-20.25 108.44-21L108.44-21Q108.44-21.75 109.24-21.9L109.24-21.9Q111.54-22.25 112.77-22.6 113.99-22.95 114.64-23.2 115.29-23.45 115.79-23.5L115.79-23.5Q116.19-23.55 116.47-23.35 116.74-23.15 116.74-22.55L116.74-22.55 116.74-5.15Q116.74-4.3 116.82-3.5 116.89-2.7 117.42-2.23 117.94-1.75 119.34-1.75L119.34-1.75Q119.79-1.75 120.12-1.68 120.44-1.6 120.49-0.85L120.49-0.85Q120.49-0.5 120.29-0.18 120.09 0.15 119.69 0.15L119.69 0.15Q118.24 0.05 117.02 0.03 115.79 0 114.44 0L114.44 0Q113.09 0 111.89 0.03 110.69 0.05 109.24 0.15ZM114.19-29.05L114.19-29.05Q112.79-29.05 111.84-29.93 110.89-30.8 110.89-32.1L110.89-32.1Q110.89-33.25 112.04-34.15 113.19-35.05 114.64-35.05L114.64-35.05Q115.89-35.05 116.69-34.18 117.49-33.3 117.49-31.95L117.49-31.95Q117.49-30.75 116.54-29.9 115.59-29.05 114.19-29.05ZM132.19 0.85L132.19 0.85Q130.69 0.85 129.34 0.1 127.99-0.65 127.11-2.2 126.24-3.75 126.24-6.1L126.24-6.1 126.24-20.8 123.34-20.7Q122.99-20.7 122.81-20.98 122.64-21.25 122.64-21.6L122.64-21.6Q122.64-22.6 123.34-22.75L123.34-22.75Q125.19-23.1 126.14-23.93 127.09-24.75 127.61-25.9 128.14-27.05 128.59-28.4L128.59-28.4Q128.74-28.8 129.04-28.93 129.34-29.05 129.69-29.05L129.69-29.05Q129.99-29.05 130.36-28.9 130.74-28.75 130.74-28.35L130.74-28.35 130.39-22.65 136.24-23Q136.69-23.05 136.84-22.75 136.99-22.45 136.99-22.05L136.99-22.05Q136.99-21.55 136.81-21.05 136.64-20.55 136.39-20.55L136.39-20.55 130.79-20.7 130.79-5.5Q130.79-4.05 131.41-2.85 132.04-1.65 133.69-1.65L133.69-1.65Q134.24-1.65 134.94-1.75 135.64-1.85 136.44-2.2L136.44-2.2Q136.64-2.3 136.84-2.38 137.04-2.45 137.24-2.45L137.24-2.45Q137.64-2.45 137.84-2.13 138.04-1.8 138.19-1.45L138.19-1.45Q138.34-1 137.94-0.75L137.94-0.75Q136.39 0.25 135.09 0.55 133.79 0.85 132.19 0.85ZM152.34 0.6L152.34 0.6Q148.94 0.6 146.94-1.45 144.94-3.5 144.94-6.85L144.94-6.85 144.94-16.1Q144.94-17 144.86-17.78 144.78-18.55 144.28-19.03 143.78-19.5 142.39-19.5L142.39-19.5Q141.94-19.5 141.56-19.63 141.19-19.75 141.19-20.5L141.19-20.5Q141.19-21.25 141.99-21.4L141.99-21.4Q144.28-21.75 145.51-22.1 146.74-22.45 147.39-22.7 148.03-22.95 148.53-23L148.53-23Q148.94-23.05 149.21-22.85 149.49-22.65 149.49-22.05L149.49-22.05 149.49-6.9Q149.49-5.25 150.21-4.2 150.94-3.15 152.03-2.65 153.14-2.15 154.28-2.15L154.28-2.15Q156.03-2.15 157.34-2.78 158.64-3.4 159.44-4.23 160.24-5.05 160.49-5.6L160.49-5.6 160.49-16.1Q160.49-17 160.41-17.78 160.34-18.55 159.84-19.03 159.34-19.5 157.94-19.5L157.94-19.5Q157.49-19.5 157.11-19.63 156.74-19.75 156.74-20.5L156.74-20.5Q156.74-21.25 157.53-21.4L157.53-21.4Q159.84-21.75 161.06-22.1 162.29-22.45 162.94-22.7 163.59-22.95 164.09-23L164.09-23Q164.49-23.05 164.76-22.85 165.04-22.65 165.04-22.05L165.04-22.05 165.04-4.75Q165.04-1.8 168.99-1.8L168.99-1.8Q169.54-1.8 169.69-1.5 169.84-1.2 169.84-0.85L169.84-0.85Q169.84-0.15 168.99 0L168.99 0 160.94 0.55Q160.59 0.55 160.54 0.25 160.49-0.05 160.49-0.45L160.49-0.45 160.49-3.25 160.39-3.25Q159.44-2.35 158.36-1.45 157.28-0.55 155.86 0.03 154.44 0.6 152.34 0.6ZM172.58 0.15L172.58 0.15Q172.23 0.15 172.01-0.18 171.78-0.5 171.78-0.85L171.78-0.85Q171.88-1.6 172.18-1.68 172.48-1.75 172.98-1.75L172.98-1.75Q174.38-1.75 174.88-2.23 175.38-2.7 175.46-3.5 175.53-4.3 175.53-5.15L175.53-5.15 175.53-16.6Q175.53-17.5 175.46-18.28 175.38-19.05 174.88-19.53 174.38-20 172.98-20L172.98-20Q172.53-20 172.16-20.13 171.78-20.25 171.78-21L171.78-21Q171.78-21.75 172.58-21.9L172.58-21.9Q174.88-22.25 176.11-22.6 177.33-22.95 177.96-23.2 178.58-23.45 179.08-23.5L179.08-23.5Q179.48-23.55 179.76-23.35 180.03-23.15 180.03-22.55L180.03-22.55 180.03-19.45 180.18-19.45Q181.88-21.1 183.68-22.18 185.48-23.25 186.98-23.25L186.98-23.25Q188.73-23.25 189.66-21.95 190.58-20.65 190.58-19.2L190.58-19.2Q190.58-17.95 189.78-16.78 188.98-15.6 187.38-15.6L187.38-15.6Q186.58-15.6 186.11-15.93 185.63-16.25 185.58-16.4L185.58-16.4Q185.58-16.5 186.06-17 186.53-17.5 186.53-18.25L186.53-18.25Q186.53-19.15 186.06-19.7 185.58-20.25 184.78-20.25L184.78-20.25Q183.93-20.25 182.61-19.4 181.28-18.55 180.08-17.35L180.08-17.35 180.08-5.15Q180.08-4.3 180.16-3.5 180.23-2.7 180.76-2.23 181.28-1.75 182.68-1.75L182.68-1.75Q183.13-1.75 183.46-1.68 183.78-1.6 183.83-0.85L183.83-0.85Q183.83-0.5 183.63-0.18 183.43 0.15 183.03 0.15L183.03 0.15Q181.58 0.05 180.36 0.03 179.13 0 177.78 0L177.78 0Q176.43 0 175.23 0.03 174.03 0.05 172.58 0.15ZM204.93 0.6L204.93 0.6Q201.08 0.6 198.46-1.05 195.83-2.7 194.53-5.45 193.23-8.2 193.23-11.45L193.23-11.45Q193.23-13.65 194.01-15.73 194.78-17.8 196.23-19.53 197.68-21.25 199.73-22.25 201.78-23.25 204.38-23.25L204.38-23.25Q208.98-23.25 211.31-20.88 213.63-18.5 213.98-14.85L213.98-14.85Q213.98-13.1 213.01-12.55 212.03-12 210.48-12L210.48-12 198.33-12Q198.33-9.1 199.13-6.83 199.93-4.55 201.66-3.23 203.38-1.9 206.23-1.9L206.23-1.9Q208.33-1.9 209.83-2.8 211.33-3.7 212.73-5.95L212.73-5.95Q213.13-6.45 213.83-6L213.83-6Q214.23-5.8 214.33-5.38 214.43-4.95 214.23-4.65L214.23-4.65Q212.68-2.2 210.33-0.8 207.98 0.6 204.93 0.6ZM198.33-13.9L198.33-13.9 206.48-13.9Q207.68-13.9 208.41-14.38 209.13-14.85 209.18-16L209.18-16Q209.18-18.15 208.01-19.83 206.83-21.5 204.38-21.5L204.38-21.5Q201.88-21.5 200.21-19.5 198.53-17.5 198.33-13.9Z" opacity="1" transform="matrix(1,0,0,1,0,0)" fill="#fe7833" class="slogan-text-1" data-fill-palette-color="secondary" id="text-1"></path></svg></g></svg></g></svg></g></svg></g><g><svg viewBox="0 0 229.75353014154518 229.75353014154518" height="229.75353014154518" width="229.75353014154518"><g><svg></svg></g><g id="icon-0"><svg viewBox="0 0 229.75353014154518 229.75353014154518" height="229.75353014154518" width="229.75353014154518"><g><path d="M0 114.877c0-63.445 51.432-114.877 114.877-114.877 63.445 0 114.877 51.432 114.877 114.877 0 63.445-51.432 114.877-114.877 114.877-63.445 0-114.877-51.432-114.877-114.877zM114.877 224.257c60.409 0 109.381-48.971 109.38-109.38 0-60.409-48.971-109.381-109.38-109.381-60.409 0-109.381 48.971-109.381 109.381 0 60.409 48.971 109.381 109.381 109.38z" data-fill-palette-color="accent" fill="#fe7833" stroke="transparent"></path></g><g transform="matrix(1,0,0,1,81.93136620739207,46.17493693069062)"><svg viewBox="0 0 65.89079772676104 137.40365628016394" height="137.40365628016394" width="65.89079772676104"><g><svg xmlns:dc="http://purl.org/dc/elements/1.1/" xmlns:cc="http://creativecommons.org/ns#" xmlns:rdf="http://www.w3.org/1999/02/22-rdf-syntax-ns#" xmlns:svg="http://www.w3.org/2000/svg" xmlns="http://www.w3.org/2000/svg" xmlns:sodipodi="http://sodipodi.sourceforge.net/DTD/sodipodi-0.dtd" xmlns:inkscape="http://www.inkscape.org/namespaces/inkscape" viewBox="19.50781470756613 0.6417189564336359 37.5962146054721 78.40028543147376" version="1.1" x="0" y="0" height="137.40365628016394" width="65.89079772676104" class="icon-dxe-0" data-fill-palette-color="accent" id="dxe-0"><path d="M55.945 0.646C56.671 0.776 57.214 1.554 57.085 2.28 53.575 15.364 53.373 30.757 50.729 43.49V43.533L50.961 77.321C50.97 78.06 50.307 78.74 49.569 78.748 48.831 78.759 48.152 78.094 48.142 77.356L47.908 43.876 22.447 43.786 22.327 77.617C22.335 78.362 21.657 79.044 20.913 79.042 20.168 79.039 19.495 78.352 19.508 77.607L19.632 42.367A1.44 1.44 0 0 1 20.43 41.047 1.64 1.64 0 0 1 19.95 39.902 1.57 1.57 0 0 1 21.54 38.32L25.506 38.335 25.535 29.833 22.936 29.823C22.191 29.836 21.51 29.154 21.512 28.41 21.514 27.664 22.202 26.99 22.946 27.004L50.434 27.101 54.31 1.873C54.401 1.166 55.101 0.593 55.813 0.645zM49.983 29.92L28.355 29.843 28.325 38.345 48.676 38.417z" fill="#fe7833" fill-opacity="1" stroke="none" marker="none" visibility="visible" display="inline" overflow="visible" text-indent="0" text-transform="none" direction="ltr" block-progression="tb" baseline-shift="baseline" color="#fe7833" enable-background="accumulate" data-fill-palette-color="accent"></path></svg></g></svg></g></svg></g></svg></g></svg></g><defs></defs></svg><rect width="395.52" height="138.93775221978518" fill="none" stroke="none" visibility="hidden"></rect></g></svg></g></svg>